<svg width="17" height="10" viewBox="0 0 17 10" fill="none" xmlns="http://www.w3.org/2000/svg">
<path d="M16.7264 1.4705L9.22635 8.9705C9.1567 9.04023 9.07398 9.09555 8.98293 9.13329C8.89189 9.17103 8.79429 9.19046 8.69573 9.19046C8.59717 9.19046 8.49957 9.17103 8.40852 9.13329C8.31748 9.09555 8.23476 9.04023 8.1651 8.9705L0.665105 1.4705C0.524374 1.32976 0.445312 1.13889 0.445312 0.93987C0.445312 0.740847 0.524374 0.549975 0.665105 0.409245C0.805835 0.268514 0.996707 0.189453 1.19573 0.189453C1.39475 0.189453 1.58562 0.268514 1.72635 0.409245L8.69573 7.37956L15.6651 0.409245C15.7348 0.339562 15.8175 0.284287 15.9086 0.246575C15.9996 0.208863 16.0972 0.189453 16.1957 0.189453C16.2943 0.189453 16.3919 0.208863 16.4829 0.246575C16.5739 0.284287 16.6567 0.339562 16.7264 0.409245C16.796 0.478927 16.8513 0.561653 16.889 0.652698C16.9267 0.743743 16.9461 0.841324 16.9461 0.93987C16.9461 1.03842 16.9267 1.136 16.889 1.22704C16.8513 1.31809 16.796 1.40081 16.7264 1.4705Z" fill="#2F3238"/>
</svg>
